<?xml version="1.0" standalone="no"?>
<!DOCTYPE svg PUBLIC "-//W3C//DTD SVG 20010904//EN"
 "http://www.w3.org/TR/2001/REC-SVG-20010904/DTD/svg10.dtd">
<svg version="1.0" xmlns="http://www.w3.org/2000/svg"
 width="1024.000000pt" height="1024.000000pt" viewBox="0 0 1024.000000 1024.000000"
 preserveAspectRatio="xMidYMid meet">

<g transform="translate(0.000000,1024.000000) scale(0.100000,-0.100000)"
fill="#000000" stroke="none">
<path d="M5788 10183 c7 -3 16 -2 19 1 4 3 -2 6 -13 5 -11 0 -14 -3 -6 -6z"/>
<path d="M5928 10163 c7 -3 16 -2 19 1 4 3 -2 6 -13 5 -11 0 -14 -3 -6 -6z"/>
<path d="M4897 8220 c-345 -27 -687 -103 -963 -213 -50 -21 -94 -37 -97 -37
-2 0 -53 -23 -111 -50 -59 -28 -112 -47 -118 -44 -6 4 -8 3 -5 -3 4 -5 -42
-36 -101 -68 -118 -64 -275 -167 -393 -256 -42 -32 -80 -55 -84 -51 -4 4 -5 2
-3 -4 1 -7 -1 -12 -5 -12 -5 -1 -18 -13 -29 -27 -13 -17 -26 -24 -36 -20 -9 3
-13 3 -10 -1 4 -3 -62 -74 -146 -158 -275 -272 -455 -509 -621 -823 -27 -50
-53 -89 -59 -86 -5 3 -6 2 -3 -4 3 -5 -29 -93 -73 -194 -43 -102 -88 -217
-100 -257 -12 -40 -26 -72 -32 -72 -5 0 -7 -4 -3 -9 3 -5 -6 -49 -20 -98 -137
-472 -205 -987 -176 -1333 19 -223 56 -404 121 -598 17 -50 28 -97 24 -103 -4
-7 -3 -9 2 -6 14 8 68 -119 58 -135 -4 -7 -3 -10 1 -5 5 4 34 -40 66 -98 32
-58 80 -140 108 -182 28 -41 48 -80 44 -86 -3 -5 -2 -7 4 -4 13 8 76 -70 68
-83 -4 -6 -3 -9 2 -8 5 2 71 -62 148 -141 249 -256 547 -459 875 -596 36 -15
79 -33 95 -41 107 -50 546 -174 735 -208 357 -64 626 -86 1060 -86 465 0 725
23 1100 96 340 66 625 158 907 294 197 95 308 162 481 293 350 264 627 627
770 1008 46 123 92 269 92 294 0 9 4 14 9 11 5 -4 7 4 3 16 -3 11 -1 19 4 16
5 -4 9 10 9 30 0 21 9 91 20 157 16 96 20 166 19 355 -1 279 -18 441 -84 765
-48 239 -143 565 -209 718 -12 27 -21 57 -21 68 0 10 -4 19 -10 19 -5 0 -10 5
-10 10 0 19 -127 272 -200 399 -193 334 -472 662 -757 889 -45 36 -80 69 -77
74 3 5 1 7 -4 6 -5 -2 -52 28 -105 66 -69 49 -94 73 -90 85 4 13 3 13 -5 2 -8
-11 -21 -7 -72 24 -47 28 -59 40 -48 47 10 8 9 9 -4 4 -11 -3 -73 25 -158 70
-357 193 -808 333 -1205 374 -142 15 -451 20 -578 10z m-1030 -1565 c209 -40
422 -173 553 -347 164 -218 253 -447 315 -813 27 -162 45 -345 45 -465 l0 -75
-76 -60 c-123 -99 -324 -335 -344 -406 -9 -29 -6 -43 21 -96 78 -153 290 -392
438 -490 227 -152 412 -146 641 23 120 88 279 267 379 425 70 113 67 131 -44
274 -91 117 -183 213 -265 275 l-71 55 6 140 c13 277 60 565 126 770 98 306
280 556 494 677 166 94 305 130 500 131 179 0 303 -27 450 -101 291 -145 451
-359 616 -826 199 -562 282 -964 283 -1371 1 -361 -55 -632 -192 -927 -146
-314 -435 -620 -777 -823 -485 -287 -1114 -435 -1850 -435 -848 0 -1555 202
-2061 588 -469 357 -722 862 -751 1497 -17 387 81 898 279 1444 94 260 127
337 192 445 171 286 441 467 757 505 87 11 235 5 336 -14z m1408 -1794 c44
-22 116 -71 161 -109 84 -72 214 -217 214 -238 0 -15 -113 -56 -255 -91 -99
-25 -127 -28 -275 -27 -156 0 -172 2 -300 36 -74 20 -157 46 -183 57 -45 19
-47 22 -36 43 22 43 263 273 323 307 141 83 218 88 351 22z m-470 -606 c256
-60 418 -58 673 8 51 14 92 21 90 16 -9 -26 -139 -156 -207 -207 -171 -129
-289 -134 -452 -20 -76 53 -176 148 -219 208 -22 30 -22 33 -4 26 10 -4 64
-18 119 -31z"/>
<path d="M6625 5919 c-266 -21 -501 -172 -629 -403 -90 -163 -120 -383 -76
-562 74 -301 296 -517 606 -590 107 -25 304 -15 409 20 199 68 349 192 450
371 88 157 118 374 76 550 -50 207 -176 386 -352 498 -144 92 -303 130 -484
116z m190 -184 c116 -24 208 -76 300 -169 92 -93 136 -167 165 -282 73 -284
-63 -576 -325 -700 -92 -43 -218 -68 -304 -60 -172 16 -338 102 -435 226 -82
106 -84 118 -7 47 126 -116 254 -163 415 -155 112 7 188 32 279 95 227 154
302 455 176 706 -43 84 -89 139 -162 191 -83 58 -115 74 -200 96 l-72 18 50 1
c28 0 82 -6 120 -14z m-344 -178 c163 -86 117 -340 -65 -355 -29 -2 -70 1 -89
7 -45 15 -102 78 -116 128 -13 47 -13 59 -1 105 32 113 166 170 271 115z m459
-579 c30 -32 34 -61 15 -97 -21 -41 -55 -57 -97 -45 -66 19 -81 110 -25 149
32 22 83 19 107 -7z"/>
<path d="M3365 5901 c-241 -59 -449 -237 -543 -463 -162 -390 3 -824 383
-1009 133 -65 222 -83 380 -77 181 8 319 58 460 169 192 150 295 365 295 614
0 370 -244 679 -603 765 -105 25 -272 26 -372 1z m170 -171 c-107 -28 -152
-49 -219 -102 -73 -59 -118 -113 -157 -190 -77 -151 -79 -330 -5 -483 45 -95
103 -164 184 -219 90 -62 166 -87 277 -93 166 -9 293 39 419 157 72 68 73 56
4 -37 -86 -113 -229 -201 -375 -229 -95 -18 -143 -18 -235 1 -184 38 -341 160
-422 328 -51 107 -66 168 -66 275 0 328 278 609 605 611 l60 0 -70 -19z m400
-169 c77 -35 123 -116 111 -195 -18 -108 -97 -172 -206 -164 -107 8 -176 89
-168 199 10 137 140 216 263 160z m-510 -586 c46 -45 26 -127 -35 -140 -59
-13 -120 45 -106 101 17 64 95 86 141 39z"/>
<path d="M4078 8083 c7 -3 16 -2 19 1 4 3 -2 6 -13 5 -11 0 -14 -3 -6 -6z"/>
<path d="M141 6264 c0 -11 3 -14 6 -6 3 7 2 16 -1 19 -3 4 -6 -2 -5 -13z"/>
<path d="M21 4744 c0 -11 3 -14 6 -6 3 7 2 16 -1 19 -3 4 -6 -2 -5 -13z"/>
<path d="M131 4014 c0 -11 3 -14 6 -6 3 7 2 16 -1 19 -3 4 -6 -2 -5 -13z"/>
<path d="M141 3974 c0 -11 3 -14 6 -6 3 7 2 16 -1 19 -3 4 -6 -2 -5 -13z"/>
<path d="M1930 1126 c0 -2 8 -10 18 -17 15 -13 16 -12 3 4 -13 16 -21 21 -21
13z"/>
</g>
</svg>
